<svg id="Layer_1" data-name="Layer 1" xmlns="http://www.w3.org/2000/svg" width="490" height="111.08972" viewBox="0 0 490 111.08972">
  <defs>
    <style>
      .cls-1 {
        fill: #485a66;
      }

      .cls-2 {
        fill: #13bc64;
      }
    </style>
  </defs>
  <title>Logo Only</title>
  <g>
    <path class="cls-1" d="M386.98324,188.73534V229.2901h-6.73381V176.16893h5.23516l32.91974,41.375V176.23981h6.73381V229.2901h-5.68071Z" transform="translate(-55 -144.45514)"/>
    <path class="cls-1" d="M453.42015,230.03943a19.9218,19.9218,0,0,1-8.08057-1.61,19.12278,19.12278,0,0,1-6.27814-4.37445,19.80059,19.80059,0,0,1-4.0808-6.47053,21.1454,21.1454,0,0,1-1.45815-7.8173,20.91012,20.91012,0,0,1,1.45815-7.78692,19.84992,19.84992,0,0,1,4.11117-6.43,19.39825,19.39825,0,0,1,6.32877-4.37445,19.85312,19.85312,0,0,1,8.08058-1.61,18.93867,18.93867,0,0,1,18.13573,12.374,20.77162,20.77162,0,0,1,1.38726,7.52365c0,.5468-.01012,1.043-.0405,1.49865a6.95911,6.95911,0,0,1-.11139,1.043H440.47908a15.22,15.22,0,0,0,1.34676,5.31617,13.61994,13.61994,0,0,0,2.9163,4.11117,13.37141,13.37141,0,0,0,4.08079,2.69352,12.17907,12.17907,0,0,0,4.83012.9721,12.90574,12.90574,0,0,0,3.51373-.486,15.2343,15.2343,0,0,0,3.21-1.30626,11.15611,11.15611,0,0,0,2.66314-2.0252,8.08309,8.08309,0,0,0,1.75181-2.69353l5.69083,1.57966a14.44145,14.44145,0,0,1-2.653,3.95928,17.55919,17.55919,0,0,1-3.89853,3.1087,19.91018,19.91018,0,0,1-4.901,2.05558A20.95039,20.95039,0,0,1,453.42015,230.03943Zm13.39674-22.895a13.989,13.989,0,0,0-1.38726-5.12378,13.54848,13.54848,0,0,0-2.9163-3.99978,13.194,13.194,0,0,0-9.01217-3.52386,13.00628,13.00628,0,0,0-4.9415.94172,12.571,12.571,0,0,0-4.0808,2.61252,13.30573,13.30573,0,0,0-2.83529,4.00991,14.58843,14.58843,0,0,0-1.31638,5.08327Z" transform="translate(-55 -144.45514)"/>
    <path class="cls-1" d="M501.00238,195.9957a17.01445,17.01445,0,0,0-8.71851,2.54164,12.94992,12.94992,0,0,0-5.34655,6.66293V229.2901H480.3554V190.234h6.12625v9.05267a18.3825,18.3825,0,0,1,5.31617-6.54141,13.14639,13.14639,0,0,1,7.03759-2.80492h1.26576a4.64414,4.64414,0,0,1,.90121.07089Z" transform="translate(-55 -144.45514)"/>
    <path class="cls-1" d="M522.92525,230.03943a17.04665,17.04665,0,0,1-7.48314-1.65055,18.36719,18.36719,0,0,1-5.90348-4.415,20.26984,20.26984,0,0,1-3.858-6.43,21.64829,21.64829,0,0,1-1.38727-7.70591,23.08355,23.08355,0,0,1,1.31639-7.8173,20.259,20.259,0,0,1,3.66562-6.47053,17.35768,17.35768,0,0,1,5.60983-4.37445,15.85959,15.85959,0,0,1,7.13885-1.61,14.87676,14.87676,0,0,1,8.42486,2.46063,19.472,19.472,0,0,1,5.8731,5.99461V174.67028h6.58192v46.53925c0,1.54928.6987,2.34924,2.09609,2.38974v5.69083c-.6987.10126-1.26575.17214-1.68092.22277a10.53165,10.53165,0,0,1-1.23538.081,4.95567,4.95567,0,0,1-3.41247-1.31638,3.96656,3.96656,0,0,1-1.45815-3.02769v-3.291a16.81983,16.81983,0,0,1-14.28783,8.08058Zm1.56953-5.69083a11.1702,11.1702,0,0,0,3.70613-.66832,14.317,14.317,0,0,0,3.59474-1.87332,13.464,13.464,0,0,0,2.9163-2.80491,8.4657,8.4657,0,0,0,1.61-3.40235V204.38006a12.41311,12.41311,0,0,0-2.02521-3.55424,15.914,15.914,0,0,0-3.02768-2.92642,14.91247,14.91247,0,0,0-3.59474-1.9442,10.92193,10.92193,0,0,0-3.777-.70882,11.22934,11.22934,0,0,0-5.27567,1.23537,12.96511,12.96511,0,0,0-4.04029,3.291,15.12642,15.12642,0,0,0-2.58213,4.71873,16.82986,16.82986,0,0,0-.89109,5.41743,15.08257,15.08257,0,0,0,1.043,5.57945,14.61182,14.61182,0,0,0,2.84541,4.59722,13.68016,13.68016,0,0,0,4.22256,3.10869A12.14818,12.14818,0,0,0,524.49478,224.3486Z" transform="translate(-55 -144.45514)"/>
  </g>
  <polygon class="cls-1" points="0 22.386 0 0 50.394 45.093 50.394 2.548 67.478 2.548 67.478 59.767 83.611 74.399 83.611 31.882 99.996 31.882 100.036 111.09 0 22.386"/>
  <path class="cls-2" d="M71.08112,223.86359H55.22622l-.09351-45.23389,15.94841,14.23087Z" transform="translate(-55 -144.45514)"/>
  <path class="cls-2" d="M87.73135,207.73542l16.05656,14.38122V252.7203H87.73135Z" transform="translate(-55 -144.45514)"/>
</svg>
