<svg id="Layer_1" data-name="Layer 1" xmlns="http://www.w3.org/2000/svg" width="371.46342" height="71.30753" viewBox="0 0 371.46342 71.30753">
  <defs>
    <style>
      .cls-1 {
        fill: #13bc64;
      }

      .cls-2 {
        fill: #485a66;
      }
    </style>
  </defs>
  <title>Logo Text</title>
  <g>
    <path class="cls-1" d="M183.855,195.24638V229.2901H173.53658V176.16893h7.99957l27.68457,34.86393v-34.793h10.32856V229.2901h-8.38436Z" transform="translate(-173.53658 -174.67028)"/>
    <path class="cls-1" d="M229.64493,184.62417v-9.95389h10.02478v9.95389Zm0,44.66593v-39.208h10.02478v39.208Z" transform="translate(-173.53658 -174.67028)"/>
    <path class="cls-1" d="M264.05319,229.51287a16.20335,16.20335,0,0,1-7.17935-1.56953,17.207,17.207,0,0,1-5.56932-4.30357,19.53287,19.53287,0,0,1-3.63525-6.31864,23.83843,23.83843,0,0,1,.081-15.56371,20.35751,20.35751,0,0,1,3.73651-6.43,16.93132,16.93132,0,0,1,5.76171-4.34406,17.35233,17.35233,0,0,1,7.40213-1.56954,15.35663,15.35663,0,0,1,8.00969,2.05559,17.45906,17.45906,0,0,1,5.69083,5.49843v-6.8857h8.7489v37.33468a17.89393,17.89393,0,0,1-1.64042,7.78692,17.20656,17.20656,0,0,1-4.53646,5.8326,20.13505,20.13505,0,0,1-6.87558,3.66562,28.61587,28.61587,0,0,1-8.71851,1.27588,24.619,24.619,0,0,1-10.81461-2.13659,21.89523,21.89523,0,0,1-7.51352-6.025l5.45794-5.306a15.52727,15.52727,0,0,0,5.65032,4.33394,16.9414,16.9414,0,0,0,7.21987,1.56954,15.84353,15.84353,0,0,0,4.45545-.62782,10.97165,10.97165,0,0,0,3.777-1.9847,9.33149,9.33149,0,0,0,2.58214-3.44285,12.15424,12.15424,0,0,0,.93159-4.94151v-4.93137a13.2364,13.2364,0,0,1-5.45793,5.19465A16.11391,16.11391,0,0,1,264.05319,229.51287Zm3.372-7.99956a9.54386,9.54386,0,0,0,3.13907-.52656,11.072,11.072,0,0,0,2.77454-1.42777,11.52361,11.52361,0,0,0,2.23785-2.086,9.6415,9.6415,0,0,0,1.49865-2.55176v-9.34633a12.215,12.215,0,0,0-4.22255-5.53894,10.10217,10.10217,0,0,0-6.025-2.09609,8.61614,8.61614,0,0,0-4.19218,1.0126,10.40579,10.40579,0,0,0-3.22008,2.69353,12.43371,12.43371,0,0,0-2.05558,3.84789,14.30255,14.30255,0,0,0-.70883,4.496,12.21289,12.21289,0,0,0,.82021,4.48583,11.27732,11.27732,0,0,0,2.28849,3.66563,10.64577,10.64577,0,0,0,3.40234,2.47075A10.05193,10.05193,0,0,0,267.42516,221.51331Z" transform="translate(-173.53658 -174.67028)"/>
    <path class="cls-1" d="M332.59632,229.2901H322.57154V207.29636q0-4.64785-1.72142-6.8452a5.78023,5.78023,0,0,0-4.8605-2.20748,7.51724,7.51724,0,0,0-2.84541.59744,11.07419,11.07419,0,0,0-2.84542,1.68092,14.64192,14.64192,0,0,0-2.47075,2.58214,10.13721,10.13721,0,0,0-1.64042,3.291v22.895H296.16285V174.67028h10.02477v22.67218a15.15725,15.15725,0,0,1,5.8731-5.87309,16.62136,16.62136,0,0,1,8.192-2.05559,12.92141,12.92141,0,0,1,6.20726,1.30626,9.8752,9.8752,0,0,1,3.74663,3.48335,14.34063,14.34063,0,0,1,1.86319,4.93138,30.20063,30.20063,0,0,1,.52656,5.69083Z" transform="translate(-173.53658 -174.67028)"/>
    <path class="cls-1" d="M364.463,227.275a44.96216,44.96216,0,0,1-4.94151,1.79231,20.77293,20.77293,0,0,1-6.13638.89109,14.44852,14.44852,0,0,1-3.9289-.51643,8.77591,8.77591,0,0,1-3.20995-1.68092,8.14847,8.14847,0,0,1-2.20747-2.99731,10.70361,10.70361,0,0,1-.83034-4.45545V197.788h-5.15415V190.0821h5.15415V177.3638h10.02477v12.7183h8.23247V197.788h-8.23247v19.15846a3.55644,3.55644,0,0,0,1.09362,2.9568,4.15079,4.15079,0,0,0,2.653.86071,9.39631,9.39631,0,0,0,3.06818-.52655c.99236-.34429,1.79231-.64807,2.38975-.90122Z" transform="translate(-173.53658 -174.67028)"/>
  </g>
  <g>
    <path class="cls-2" d="M386.98324,188.73534V229.2901h-6.73381V176.16893h5.23516l32.91974,41.375V176.23981h6.73381V229.2901h-5.68071Z" transform="translate(-173.53658 -174.67028)"/>
    <path class="cls-2" d="M453.42015,230.03943a19.9218,19.9218,0,0,1-8.08057-1.61,19.12278,19.12278,0,0,1-6.27814-4.37445,19.80059,19.80059,0,0,1-4.0808-6.47053,21.1454,21.1454,0,0,1-1.45815-7.8173,20.91012,20.91012,0,0,1,1.45815-7.78692,19.84992,19.84992,0,0,1,4.11117-6.43,19.39825,19.39825,0,0,1,6.32877-4.37445,19.85312,19.85312,0,0,1,8.08058-1.61,18.93867,18.93867,0,0,1,18.13573,12.374,20.77162,20.77162,0,0,1,1.38726,7.52365c0,.5468-.01012,1.043-.0405,1.49865a6.95911,6.95911,0,0,1-.11139,1.043H440.47908a15.22,15.22,0,0,0,1.34676,5.31617,13.61994,13.61994,0,0,0,2.9163,4.11117,13.37141,13.37141,0,0,0,4.08079,2.69352,12.17907,12.17907,0,0,0,4.83012.9721,12.90574,12.90574,0,0,0,3.51373-.486,15.2343,15.2343,0,0,0,3.21-1.30626,11.15611,11.15611,0,0,0,2.66314-2.0252,8.08309,8.08309,0,0,0,1.75181-2.69353l5.69083,1.57966a14.44145,14.44145,0,0,1-2.653,3.95928,17.55919,17.55919,0,0,1-3.89853,3.1087,19.91018,19.91018,0,0,1-4.901,2.05558A20.95039,20.95039,0,0,1,453.42015,230.03943Zm13.39674-22.895a13.989,13.989,0,0,0-1.38726-5.12378,13.54848,13.54848,0,0,0-2.9163-3.99978,13.194,13.194,0,0,0-9.01217-3.52386,13.00628,13.00628,0,0,0-4.9415.94172,12.571,12.571,0,0,0-4.0808,2.61252,13.30573,13.30573,0,0,0-2.83529,4.00991,14.58843,14.58843,0,0,0-1.31638,5.08327Z" transform="translate(-173.53658 -174.67028)"/>
    <path class="cls-2" d="M501.00238,195.9957a17.01445,17.01445,0,0,0-8.71851,2.54164,12.94992,12.94992,0,0,0-5.34655,6.66293V229.2901H480.3554V190.234h6.12625v9.05267a18.3825,18.3825,0,0,1,5.31617-6.54141,13.14639,13.14639,0,0,1,7.03759-2.80492h1.26576a4.64414,4.64414,0,0,1,.90121.07089Z" transform="translate(-173.53658 -174.67028)"/>
    <path class="cls-2" d="M522.92525,230.03943a17.04665,17.04665,0,0,1-7.48314-1.65055,18.36719,18.36719,0,0,1-5.90348-4.415,20.26984,20.26984,0,0,1-3.858-6.43,21.64829,21.64829,0,0,1-1.38727-7.70591,23.08355,23.08355,0,0,1,1.31639-7.8173,20.259,20.259,0,0,1,3.66562-6.47053,17.35768,17.35768,0,0,1,5.60983-4.37445,15.85959,15.85959,0,0,1,7.13885-1.61,14.87676,14.87676,0,0,1,8.42486,2.46063,19.472,19.472,0,0,1,5.8731,5.99461V174.67028h6.58192v46.53925c0,1.54928.6987,2.34924,2.09609,2.38974v5.69083c-.6987.10126-1.26575.17214-1.68092.22277a10.53165,10.53165,0,0,1-1.23538.081,4.95567,4.95567,0,0,1-3.41247-1.31638,3.96656,3.96656,0,0,1-1.45815-3.02769v-3.291a16.81983,16.81983,0,0,1-14.28783,8.08058Zm1.56953-5.69083a11.1702,11.1702,0,0,0,3.70613-.66832,14.317,14.317,0,0,0,3.59474-1.87332,13.464,13.464,0,0,0,2.9163-2.80491,8.4657,8.4657,0,0,0,1.61-3.40235V204.38006a12.41311,12.41311,0,0,0-2.02521-3.55424,15.914,15.914,0,0,0-3.02768-2.92642,14.91247,14.91247,0,0,0-3.59474-1.9442,10.92193,10.92193,0,0,0-3.777-.70882,11.22934,11.22934,0,0,0-5.27567,1.23537,12.96511,12.96511,0,0,0-4.04029,3.291,15.12642,15.12642,0,0,0-2.58213,4.71873,16.82986,16.82986,0,0,0-.89109,5.41743,15.08257,15.08257,0,0,0,1.043,5.57945,14.61182,14.61182,0,0,0,2.84541,4.59722,13.68016,13.68016,0,0,0,4.22256,3.10869A12.14818,12.14818,0,0,0,524.49478,224.3486Z" transform="translate(-173.53658 -174.67028)"/>
  </g>
</svg>
