<?xml version="1.0" encoding="utf-8"?>
<!-- Generator: Adobe Illustrator 24.0.2, SVG Export Plug-In . SVG Version: 6.00 Build 0)  -->
<!DOCTYPE svg PUBLIC "-//W3C//DTD SVG 1.1//EN" "http://www.w3.org/Graphics/SVG/1.1/DTD/svg11.dtd" [
	<!ENTITY ns_extend "http://ns.adobe.com/Extensibility/1.0/">
	<!ENTITY ns_ai "http://ns.adobe.com/AdobeIllustrator/10.0/">
	<!ENTITY ns_graphs "http://ns.adobe.com/Graphs/1.0/">
	<!ENTITY ns_vars "http://ns.adobe.com/Variables/1.0/">
	<!ENTITY ns_imrep "http://ns.adobe.com/ImageReplacement/1.0/">
	<!ENTITY ns_sfw "http://ns.adobe.com/SaveForWeb/1.0/">
	<!ENTITY ns_custom "http://ns.adobe.com/GenericCustomNamespace/1.0/">
	<!ENTITY ns_adobe_xpath "http://ns.adobe.com/XPath/1.0/">
]>
<svg version="1.1" id="Layer_1" xmlns:x="&ns_extend;" xmlns:i="&ns_ai;" xmlns:graph="&ns_graphs;"
	 xmlns="http://www.w3.org/2000/svg" xmlns:xlink="http://www.w3.org/1999/xlink" x="0px" y="0px" width="600px" height="400px"
	 viewBox="0 0 600 400" style="enable-background:new 0 0 600 400;" xml:space="preserve">
<style type="text/css">
	.st0{fill:#485A66;}
	.st1{fill:#13BC64;}
</style>
<metadata>
	<sfw  xmlns="&ns_sfw;">
		<slices></slices>
		<sliceSourceBounds  bottomLeftOrigin="true" height="111.4" width="206.5" x="193.1" y="-255.2"></sliceSourceBounds>
	</sfw>
</metadata>
<g>
	<polygon class="st0" points="193.1,166.2 193.1,143.8 243.5,188.9 243.5,146.4 260.6,146.4 260.6,203.6 276.7,218.2 276.7,175.7 
		293.1,175.7 293.1,254.9 	"/>
	<path class="st1" d="M209.2,223.2h-15.9l-0.1-45.2c0,0,10.7,9.5,15.9,14.2C209.2,202.5,209.2,223.2,209.2,223.2z"/>
	<path class="st1" d="M225.8,207.1c5.5,5,16.1,14.4,16.1,14.4v30.6h-16.1C225.8,252.1,225.8,222.3,225.8,207.1z"/>
</g>
<g>
	<polygon class="st0" points="399.6,166.5 399.6,144.2 349.2,189.2 349.2,146.7 332.1,146.7 332.1,203.9 315.9,218.6 315.9,176 
		299.6,176 299.5,255.2 	"/>
	<path class="st1" d="M383.5,223.6h15.9l0.1-45.2c0,0-10.7,9.5-15.9,14.2C383.5,202.8,383.5,223.6,383.5,223.6z"/>
	<path class="st1" d="M366.8,207.4c-5.5,5-16.1,14.4-16.1,14.4v30.6h16.1C366.8,252.4,366.8,222.6,366.8,207.4z"/>
</g>
</svg>
